<svg xmlns="http://www.w3.org/2000/svg" xmlns:xlink="http://www.w3.org/1999/xlink" width="815" zoomAndPan="magnify" viewBox="0 0 611.25 310.499991" height="414" preserveAspectRatio="xMidYMid meet" version="1.0"><defs><g/><clipPath id="010acd8d7b"><path d="M 415.984375 49.78125 L 609.921875 49.78125 L 609.921875 233.984375 L 415.984375 233.984375 Z M 415.984375 49.78125 " clip-rule="nonzero"/></clipPath></defs><g clip-path="url(#010acd8d7b)"><path fill="#fbeee3" d="M 598.8125 129.925781 C 599.472656 130.121094 599.4375 132.441406 600.492188 132.828125 C 602.179688 133.453125 610.421875 130.957031 610.125 135.472656 C 602.898438 135.261719 594.0625 141.632812 588.769531 143.019531 C 568.644531 148.285156 545.09375 148.554688 524.488281 152.648438 L 533.03125 156.894531 C 526.960938 157.125 518.65625 153.824219 514.367188 159.699219 C 512.636719 162.0625 507.996094 211.199219 507.734375 217.941406 C 507.605469 221.191406 510.214844 225.03125 509.640625 228.28125 C 508.636719 233.957031 489.085938 236.503906 484.375 229.144531 C 477.917969 219.039062 488.367188 175.246094 488.066406 161.207031 L 433.382812 165.597656 C 421.792969 162.695312 408.632812 153.113281 420.890625 142.199219 L 490.226562 137.65625 L 495.511719 51.9375 C 499.984375 45.945312 517.914062 53.660156 519.785156 59.878906 C 522.851562 70.050781 518.460938 81.675781 518.097656 91.636719 C 517.996094 94.253906 519.558594 97.011719 519.414062 99.808594 C 519.113281 105.742188 514.46875 132.253906 517.929688 134.558594 C 522.5625 137.640625 581.144531 124.808594 598.804688 129.933594 Z M 598.8125 129.925781 " fill-opacity="1" fill-rule="nonzero"/></g><g fill="#fbeee3" fill-opacity="1"><g transform="translate(38.874256, 202.833212)"><g><path d="M 83.328125 -134.671875 C 83.066406 -135.316406 83.320312 -135.640625 84.09375 -135.640625 C 85 -135.640625 85.773438 -135.253906 86.421875 -134.484375 C 87.066406 -133.710938 87.648438 -132.9375 88.171875 -132.15625 C 89.460938 -130.21875 90.398438 -128.019531 90.984375 -125.5625 C 91.566406 -123.113281 91.859375 -120.597656 91.859375 -118.015625 C 91.859375 -111.296875 89.820312 -105.609375 85.75 -100.953125 C 81.675781 -96.304688 76.085938 -94.175781 68.984375 -94.5625 C 65.492188 -94.820312 62.425781 -95.890625 59.78125 -97.765625 C 57.132812 -99.640625 54.742188 -101.960938 52.609375 -104.734375 C 50.484375 -107.515625 48.414062 -110.359375 46.40625 -113.265625 C 44.40625 -116.171875 42.304688 -118.722656 40.109375 -120.921875 C 36.234375 -124.796875 32.679688 -126.765625 29.453125 -126.828125 C 26.222656 -126.890625 23.445312 -125.722656 21.125 -123.328125 C 18.800781 -120.941406 16.925781 -117.941406 15.5 -114.328125 C 14.082031 -110.453125 13.210938 -105.703125 12.890625 -100.078125 C 12.566406 -94.460938 12.757812 -88.425781 13.46875 -81.96875 C 14.175781 -75.507812 15.429688 -69.113281 17.234375 -62.78125 C 19.046875 -56.457031 21.3125 -50.707031 24.03125 -45.53125 C 27.382812 -39.207031 31.351562 -34.65625 35.9375 -31.875 C 40.53125 -29.09375 45.25 -27.800781 50.09375 -28 C 54.9375 -28.195312 59.457031 -29.519531 63.65625 -31.96875 C 67.851562 -34.425781 71.304688 -37.6875 74.015625 -41.75 C 76.734375 -45.820312 78.222656 -50.25 78.484375 -55.03125 C 78.484375 -55.675781 78.445312 -56.414062 78.375 -57.25 C 78.3125 -58.09375 78.023438 -58.644531 77.515625 -58.90625 C 76.992188 -59.164062 76.796875 -59.679688 76.921875 -60.453125 C 77.054688 -61.234375 77.832031 -61.429688 79.25 -61.046875 C 83.382812 -60.140625 86.484375 -57.941406 88.546875 -54.453125 C 90.617188 -50.960938 91.722656 -47.085938 91.859375 -42.828125 C 91.984375 -34.816406 90.234375 -27.546875 86.609375 -21.015625 C 82.992188 -14.492188 78.085938 -9.359375 71.890625 -5.609375 C 65.691406 -1.867188 58.648438 0 50.765625 0 C 41.210938 0 33.171875 -2.226562 26.640625 -6.6875 C 20.117188 -11.144531 14.921875 -16.957031 11.046875 -24.125 C 7.171875 -31.289062 4.359375 -39.070312 2.609375 -47.46875 C 0.867188 -55.875 0 -64.015625 0 -71.890625 C 0 -76.929688 0.253906 -82.359375 0.765625 -88.171875 C 1.285156 -93.984375 2.253906 -99.695312 3.671875 -105.3125 C 5.097656 -110.9375 7.132812 -116.039062 9.78125 -120.625 C 12.4375 -125.21875 15.894531 -128.867188 20.15625 -131.578125 C 24.414062 -134.285156 29.644531 -135.640625 35.84375 -135.640625 C 40.5 -135.640625 44.503906 -134.863281 47.859375 -133.3125 C 51.222656 -131.769531 54.582031 -130.253906 57.9375 -128.765625 C 61.300781 -127.285156 65.175781 -126.671875 69.5625 -126.921875 C 75.507812 -127.316406 79.96875 -129.191406 82.9375 -132.546875 C 83.457031 -133.191406 83.585938 -133.898438 83.328125 -134.671875 Z M 83.328125 -134.671875 "/></g></g></g><g fill="#fbeee3" fill-opacity="1"><g transform="translate(136.926987, 202.833212)"><g><path d="M 33.71875 -99.40625 C 39.914062 -99.40625 45.535156 -97.175781 50.578125 -92.71875 C 55.617188 -88.257812 59.65625 -82.285156 62.6875 -74.796875 C 65.71875 -67.304688 67.234375 -58.972656 67.234375 -49.796875 C 67.234375 -40.628906 65.71875 -32.265625 62.6875 -24.703125 C 59.65625 -17.148438 55.617188 -11.144531 50.578125 -6.6875 C 45.535156 -2.226562 39.914062 0 33.71875 0 C 27.519531 0 21.867188 -2.226562 16.765625 -6.6875 C 11.660156 -11.144531 7.585938 -17.148438 4.546875 -24.703125 C 1.515625 -32.265625 0 -40.628906 0 -49.796875 C 0 -58.972656 1.515625 -67.304688 4.546875 -74.796875 C 7.585938 -82.285156 11.660156 -88.257812 16.765625 -92.71875 C 21.867188 -97.175781 27.519531 -99.40625 33.71875 -99.40625 Z M 42.046875 -11.4375 C 45.535156 -10.914062 48.28125 -12.171875 50.28125 -15.203125 C 52.289062 -18.242188 53.519531 -22.539062 53.96875 -28.09375 C 54.414062 -33.65625 53.800781 -39.921875 52.125 -46.890625 C 50.570312 -53.992188 48.34375 -60.550781 45.4375 -66.5625 C 42.53125 -72.570312 39.300781 -77.515625 35.75 -81.390625 C 32.195312 -85.265625 28.675781 -87.460938 25.1875 -87.984375 C 21.832031 -88.492188 19.117188 -87.226562 17.046875 -84.1875 C 14.984375 -81.15625 13.757812 -76.894531 13.375 -71.40625 C 12.988281 -65.914062 13.566406 -59.617188 15.109375 -52.515625 C 16.660156 -45.535156 18.921875 -39.007812 21.890625 -32.9375 C 24.867188 -26.863281 28.132812 -21.890625 31.6875 -18.015625 C 35.238281 -14.140625 38.691406 -11.945312 42.046875 -11.4375 Z M 42.046875 -11.4375 "/></g></g></g><g fill="#fbeee3" fill-opacity="1"><g transform="translate(202.618421, 202.833212)"><g><path d="M 2.515625 -99.40625 C 5.617188 -99.40625 8.203125 -99.273438 10.265625 -99.015625 C 12.335938 -98.765625 14.921875 -98.640625 18.015625 -98.640625 C 21.242188 -98.640625 23.859375 -98.765625 25.859375 -99.015625 C 27.867188 -99.273438 30.425781 -99.40625 33.53125 -99.40625 C 35.207031 -99.40625 36.046875 -98.757812 36.046875 -97.46875 C 36.046875 -96.957031 35.914062 -96.539062 35.65625 -96.21875 C 35.394531 -95.894531 35.070312 -95.410156 34.6875 -94.765625 C 30.289062 -87.003906 27.507812 -79.539062 26.34375 -72.375 C 25.1875 -65.207031 24.546875 -59.171875 24.421875 -54.265625 C 25.453125 -58.648438 26.835938 -63.425781 28.578125 -68.59375 C 30.328125 -73.757812 32.585938 -78.703125 35.359375 -83.421875 C 38.140625 -88.140625 41.46875 -91.984375 45.34375 -94.953125 C 49.21875 -97.921875 53.804688 -99.40625 59.109375 -99.40625 C 65.304688 -99.40625 70.375 -96.820312 74.3125 -91.65625 C 78.25 -86.488281 80.21875 -80.09375 80.21875 -72.46875 C 80.21875 -66.53125 79.3125 -61.140625 77.5 -56.296875 C 75.695312 -51.453125 73.828125 -46.800781 71.890625 -42.34375 C 69.953125 -37.882812 68.851562 -33.132812 68.59375 -28.09375 C 68.46875 -24.476562 68.953125 -20.894531 70.046875 -17.34375 C 71.148438 -13.789062 73.316406 -11.046875 76.546875 -9.109375 C 76.804688 -8.972656 77.222656 -8.804688 77.796875 -8.609375 C 78.378906 -8.421875 78.863281 -8.394531 79.25 -8.53125 C 79.769531 -8.914062 80.09375 -8.945312 80.21875 -8.625 C 80.351562 -8.300781 80.289062 -7.878906 80.03125 -7.359375 C 78.351562 -4.515625 75.960938 -2.578125 72.859375 -1.546875 C 69.765625 -0.515625 66.796875 0 63.953125 0 C 58.003906 0 53.347656 -1.675781 49.984375 -5.03125 C 46.628906 -8.394531 44.890625 -12.53125 44.765625 -17.4375 C 44.628906 -22.863281 45.851562 -27.675781 48.4375 -31.875 C 51.03125 -36.070312 54.195312 -40.046875 57.9375 -43.796875 C 61.6875 -47.546875 65.175781 -51.421875 68.40625 -55.421875 C 70.863281 -58.523438 72.507812 -61.691406 73.34375 -64.921875 C 74.1875 -68.148438 74.125 -71.054688 73.15625 -73.640625 C 72.1875 -76.222656 70.3125 -78.09375 67.53125 -79.25 C 64.75 -80.414062 60.972656 -80.351562 56.203125 -79.0625 C 50.128906 -77.382812 44.992188 -74.21875 40.796875 -69.5625 C 36.597656 -64.914062 33.363281 -59.488281 31.09375 -53.28125 C 28.832031 -47.082031 27.507812 -40.882812 27.125 -34.6875 C 26.738281 -28.875 27.191406 -23.640625 28.484375 -18.984375 C 29.773438 -14.335938 31.84375 -9.5625 34.6875 -4.65625 C 35.070312 -4.007812 35.394531 -3.554688 35.65625 -3.296875 C 35.914062 -3.035156 36.046875 -2.582031 36.046875 -1.9375 C 36.046875 -0.644531 35.207031 0 33.53125 0 C 30.425781 0 27.867188 -0.128906 25.859375 -0.390625 C 23.859375 -0.648438 21.242188 -0.78125 18.015625 -0.78125 C 14.921875 -0.78125 12.335938 -0.648438 10.265625 -0.390625 C 8.203125 -0.128906 5.617188 0 2.515625 0 C 0.835938 0 0 -0.644531 0 -1.9375 C 0 -2.582031 0.128906 -3.066406 0.390625 -3.390625 C 0.648438 -3.710938 0.972656 -4.132812 1.359375 -4.65625 C 4.847656 -9.945312 7.300781 -15.5 8.71875 -21.3125 C 10.144531 -27.125 11.019531 -32.582031 11.34375 -37.6875 C 11.664062 -42.789062 11.828125 -46.828125 11.828125 -49.796875 C 11.828125 -52.773438 11.664062 -56.78125 11.34375 -61.8125 C 11.019531 -66.851562 10.144531 -72.28125 8.71875 -78.09375 C 7.300781 -83.90625 4.847656 -89.460938 1.359375 -94.765625 C 0.972656 -95.410156 0.648438 -95.894531 0.390625 -96.21875 C 0.128906 -96.539062 0 -96.957031 0 -97.46875 C 0 -98.757812 0.835938 -99.40625 2.515625 -99.40625 Z M 2.515625 -99.40625 "/></g></g></g><g fill="#fbeee3" fill-opacity="1"><g transform="translate(286.331417, 202.833212)"><g><path d="M 44.765625 -18.015625 C 45.023438 -18.660156 45.347656 -18.953125 45.734375 -18.890625 C 46.117188 -18.828125 46.3125 -18.472656 46.3125 -17.828125 C 46.3125 -14.210938 45.148438 -11.046875 42.828125 -8.328125 C 40.503906 -5.617188 37.597656 -3.550781 34.109375 -2.125 C 30.617188 -0.707031 27.066406 0 23.453125 0 C 19.828125 0 16.207031 -0.835938 12.59375 -2.515625 C 8.976562 -4.191406 5.972656 -6.675781 3.578125 -9.96875 C 1.191406 -13.269531 0 -17.3125 0 -22.09375 C 0 -26.476562 0.867188 -31.578125 2.609375 -37.390625 C 4.359375 -43.210938 6.101562 -49.414062 7.84375 -56 C 9.59375 -62.59375 10.46875 -69.050781 10.46875 -75.375 C 10.46875 -84.164062 9.945312 -93.375 8.90625 -103 C 7.875 -112.625 5.226562 -121.957031 0.96875 -131 C 0.707031 -131.644531 0.414062 -132.128906 0.09375 -132.453125 C -0.226562 -132.773438 -0.390625 -133.191406 -0.390625 -133.703125 C -0.390625 -134.992188 0.445312 -135.640625 2.125 -135.640625 C 5.226562 -135.640625 7.8125 -135.507812 9.875 -135.25 C 11.945312 -135 14.535156 -134.875 17.640625 -134.875 C 20.867188 -134.875 23.484375 -135 25.484375 -135.25 C 27.484375 -135.507812 30.035156 -135.640625 33.140625 -135.640625 C 34.816406 -135.640625 35.65625 -134.992188 35.65625 -133.703125 C 35.65625 -133.191406 35.492188 -132.773438 35.171875 -132.453125 C 34.847656 -132.128906 34.554688 -131.644531 34.296875 -131 C 32.492188 -126.988281 30.65625 -121.269531 28.78125 -113.84375 C 26.90625 -106.414062 25.453125 -98.3125 24.421875 -89.53125 C 26.867188 -93.664062 29.285156 -96.378906 31.671875 -97.671875 C 34.066406 -98.960938 36.234375 -99.539062 38.171875 -99.40625 C 40.492188 -99.28125 42.429688 -98.472656 43.984375 -96.984375 C 45.535156 -95.503906 46.3125 -93.40625 46.3125 -90.6875 C 46.3125 -89.007812 45.921875 -87.234375 45.140625 -85.359375 C 44.367188 -83.484375 43.082031 -82.222656 41.28125 -81.578125 C 41.144531 -81.453125 40.976562 -81.453125 40.78125 -81.578125 C 40.59375 -81.710938 40.5625 -81.84375 40.6875 -81.96875 C 40.945312 -82.351562 40.882812 -82.738281 40.5 -83.125 C 39.59375 -84.550781 38.070312 -85.457031 35.9375 -85.84375 C 33.8125 -86.226562 31.585938 -85.710938 29.265625 -84.296875 C 26.804688 -82.742188 24.832031 -80.160156 23.34375 -76.546875 C 21.863281 -72.929688 20.734375 -68.765625 19.953125 -64.046875 C 19.179688 -59.328125 18.765625 -54.414062 18.703125 -49.3125 C 18.640625 -44.207031 18.832031 -39.394531 19.28125 -34.875 C 19.726562 -30.351562 20.34375 -26.546875 21.125 -23.453125 C 21.769531 -20.867188 23.285156 -18.316406 25.671875 -15.796875 C 28.066406 -13.273438 31.203125 -12.078125 35.078125 -12.203125 C 36.878906 -12.335938 38.71875 -12.890625 40.59375 -13.859375 C 42.46875 -14.828125 43.859375 -16.210938 44.765625 -18.015625 Z M 44.765625 -18.015625 "/></g></g></g><g fill="#fbeee3" fill-opacity="1"><g transform="translate(331.675944, 202.833212)"><g><path d="M 68.40625 -49.796875 C 68.40625 -46.828125 68.566406 -42.789062 68.890625 -37.6875 C 69.210938 -32.582031 70.113281 -27.125 71.59375 -21.3125 C 73.082031 -15.5 75.507812 -9.945312 78.875 -4.65625 C 79.257812 -4.132812 79.578125 -3.710938 79.828125 -3.390625 C 80.085938 -3.066406 80.21875 -2.582031 80.21875 -1.9375 C 80.21875 -0.644531 79.378906 0 77.703125 0 C 76.148438 0 74.628906 -0.128906 73.140625 -0.390625 C 71.660156 -0.648438 70.082031 -0.78125 68.40625 -0.78125 C 67.113281 -0.78125 65.722656 -0.648438 64.234375 -0.390625 C 62.753906 -0.128906 61.300781 0 59.875 0 C 58.84375 0 58.132812 -0.382812 57.75 -1.15625 C 56.070312 -3.613281 55.035156 -6.847656 54.640625 -10.859375 C 51.804688 -7.492188 48.609375 -4.84375 45.046875 -2.90625 C 41.492188 -0.96875 37.71875 0 33.71875 0 C 27.519531 0 21.867188 -2.226562 16.765625 -6.6875 C 11.660156 -11.144531 7.585938 -17.148438 4.546875 -24.703125 C 1.515625 -32.265625 0 -40.628906 0 -49.796875 C 0 -58.972656 1.515625 -67.304688 4.546875 -74.796875 C 7.585938 -82.285156 11.660156 -88.257812 16.765625 -92.71875 C 21.867188 -97.175781 27.519531 -99.40625 33.71875 -99.40625 C 37.71875 -99.40625 41.492188 -98.4375 45.046875 -96.5 C 48.609375 -94.5625 51.804688 -91.914062 54.640625 -88.5625 C 55.035156 -92.5625 56.070312 -95.789062 57.75 -98.25 C 58.007812 -99.019531 58.71875 -99.40625 59.875 -99.40625 C 61.300781 -99.40625 62.753906 -99.273438 64.234375 -99.015625 C 65.722656 -98.765625 67.113281 -98.640625 68.40625 -98.640625 C 70.082031 -98.640625 71.660156 -98.765625 73.140625 -99.015625 C 74.628906 -99.273438 76.148438 -99.40625 77.703125 -99.40625 C 79.378906 -99.40625 80.21875 -98.757812 80.21875 -97.46875 C 80.21875 -96.957031 80.085938 -96.539062 79.828125 -96.21875 C 79.578125 -95.894531 79.257812 -95.410156 78.875 -94.765625 C 75.507812 -89.460938 73.082031 -83.90625 71.59375 -78.09375 C 70.113281 -72.28125 69.210938 -66.851562 68.890625 -61.8125 C 68.566406 -56.78125 68.40625 -52.773438 68.40625 -49.796875 Z M 42.046875 -11.4375 C 45.535156 -10.914062 48.28125 -12.171875 50.28125 -15.203125 C 52.289062 -18.242188 53.519531 -22.539062 53.96875 -28.09375 C 54.414062 -33.65625 53.800781 -39.921875 52.125 -46.890625 C 50.570312 -53.992188 48.34375 -60.550781 45.4375 -66.5625 C 42.53125 -72.570312 39.300781 -77.515625 35.75 -81.390625 C 32.195312 -85.265625 28.675781 -87.460938 25.1875 -87.984375 C 21.832031 -88.492188 19.117188 -87.226562 17.046875 -84.1875 C 14.984375 -81.15625 13.757812 -76.894531 13.375 -71.40625 C 12.988281 -65.914062 13.566406 -59.617188 15.109375 -52.515625 C 16.660156 -45.535156 18.921875 -39.007812 21.890625 -32.9375 C 24.867188 -26.863281 28.132812 -21.890625 31.6875 -18.015625 C 35.238281 -14.140625 38.691406 -11.945312 42.046875 -11.4375 Z M 42.046875 -11.4375 "/></g></g></g></svg>